STARTFONT 2.1
COMMENT
COMMENT Converted from OpenType font "digital-7.otf" by "otf2bdf 3.0".
COMMENT
FONT -FreeType-Digital 7-Medium-R-Normal--29-350-60-60-P-97-ISO10646-1
SIZE 35 60 60
FONTBOUNDINGBOX 15 25 0 -3
STARTPROPERTIES 19
FOUNDRY "FreeType"
FAMILY_NAME "Digital 7"
WEIGHT_NAME "Medium"
SLANT "R"
SETWIDTH_NAME "Normal"
ADD_STYLE_NAME ""
PIXEL_SIZE 29
POINT_SIZE 350
RESOLUTION_X 60
RESOLUTION_Y 60
SPACING "P"
AVERAGE_WIDTH 97
CHARSET_REGISTRY "ISO10646"
CHARSET_ENCODING "1"
FONT_ASCENT 21
FONT_DESCENT -5
COPYRIGHT "Created by Sizenko Alexander. © 2008 Style-7. All rights reserved. http://www.styleseven.com"
_OTF_FONTFILE "digital-7.otf"
_OTF_PSNAME "Digital-7"
ENDPROPERTIES
CHARS 104
STARTCHAR 0020
ENCODING 32
SWIDTH 274 0
DWIDTH 8 0
BBX 0 0 0 0
BITMAP
ENDCHAR
STARTCHAR 0021
ENCODING 33
SWIDTH 171 0
DWIDTH 5 0
BBX 2 19 1 0
BITMAP
40
40
C0
C0
C0
C0
C0
C0
40
00
40
C0
C0
C0
C0
00
00
C0
C0
ENDCHAR
STARTCHAR 0022
ENCODING 34
SWIDTH 308 0
DWIDTH 9 0
BBX 7 5 1 14
BITMAP
C6
C6
C6
C6
44
ENDCHAR
STARTCHAR 0023
ENCODING 35
SWIDTH 480 0
DWIDTH 14 0
BBX 12 13 1 3
BITMAP
0080
1980
1980
66A0
E770
1880
1980
1880
E770
66A0
1980
1980
0080
ENDCHAR
STARTCHAR 0024
ENCODING 36
SWIDTH 480 0
DWIDTH 14 0
BBX 11 25 1 -3
BITMAP
0600
0600
0000
7FE0
7FE0
C000
C600
C600
C600
C600
C600
FF80
7FC0
3FA0
0660
0660
0660
0660
0660
0060
7FA0
7FA0
0000
0600
0600
ENDCHAR
STARTCHAR 0025
ENCODING 37
SWIDTH 548 0
DWIDTH 16 0
BBX 14 19 1 0
BITMAP
7C30
7630
C670
C660
D8E0
7CC0
01C0
0180
0180
0000
0600
0600
0E00
0DE8
1C6C
199C
398C
31B8
30F8
ENDCHAR
STARTCHAR 0026
ENCODING 38
SWIDTH 514 0
DWIDTH 15 0
BBX 13 20 1 -2
BITMAP
3F40
3FC0
60C0
70C0
70C0
70C0
6040
3F80
7FC0
FFA0
C060
C060
C060
C060
C060
C000
7FF0
7FF8
0000
0020
ENDCHAR
STARTCHAR 0027
ENCODING 39
SWIDTH 171 0
DWIDTH 5 0
BBX 2 5 1 14
BITMAP
C0
C0
C0
C0
40
ENDCHAR
STARTCHAR 0028
ENCODING 40
SWIDTH 308 0
DWIDTH 9 0
BBX 7 19 1 0
BITMAP
3C
7C
C0
C0
C0
C0
C0
C0
C0
00
C0
C0
C0
C0
C0
C0
C0
7E
3C
ENDCHAR
STARTCHAR 0029
ENCODING 41
SWIDTH 308 0
DWIDTH 9 0
BBX 6 19 2 0
BITMAP
F0
F8
0C
0C
0C
0C
0C
0C
04
00
04
0C
0C
0C
0C
0C
0C
F8
F0
ENDCHAR
STARTCHAR 002A
ENCODING 42
SWIDTH 377 0
DWIDTH 11 0
BBX 9 9 1 6
BITMAP
0C00
0C00
EF80
7F80
3E00
7F80
EF80
0C00
0C00
ENDCHAR
STARTCHAR 002B
ENCODING 43
SWIDTH 411 0
DWIDTH 12 0
BBX 9 9 1 5
BITMAP
0800
0C00
0C00
7F00
FF80
7F00
0C00
0C00
0800
ENDCHAR
STARTCHAR 002C
ENCODING 44
SWIDTH 171 0
DWIDTH 5 0
BBX 2 5 1 -3
BITMAP
C0
C0
C0
C0
40
ENDCHAR
STARTCHAR 002D
ENCODING 45
SWIDTH 411 0
DWIDTH 12 0
BBX 9 3 1 8
BITMAP
7F00
FF80
7F00
ENDCHAR
STARTCHAR 002E
ENCODING 46
SWIDTH 171 0
DWIDTH 5 0
BBX 2 2 1 0
BITMAP
C0
C0
ENDCHAR
STARTCHAR 002F
ENCODING 47
SWIDTH 480 0
DWIDTH 14 0
BBX 10 19 2 0
BITMAP
00C0
00C0
01C0
0180
0380
0300
0700
0600
0600
0000
1800
1800
3800
3000
7000
6000
E000
C000
C000
ENDCHAR
STARTCHAR 0030
ENCODING 48
SWIDTH 480 0
DWIDTH 14 0
BBX 11 19 1 0
BITMAP
7FA0
7FA0
C060
C060
C060
C060
C060
C060
C020
0000
C020
C060
C060
C060
C060
C060
C060
7FA0
7FA0
ENDCHAR
STARTCHAR 0031
ENCODING 49
SWIDTH 171 0
DWIDTH 5 0
BBX 2 19 1 0
BITMAP
40
40
C0
C0
C0
C0
C0
C0
40
00
40
C0
C0
C0
C0
C0
C0
40
40
ENDCHAR
STARTCHAR 0032
ENCODING 50
SWIDTH 480 0
DWIDTH 14 0
BBX 11 19 1 0
BITMAP
7FA0
7FA0
0060
0060
0060
0060
0060
0060
3FA0
7FC0
FF80
C000
C000
C000
C000
C000
C000
7FC0
7FC0
ENDCHAR
STARTCHAR 0033
ENCODING 51
SWIDTH 480 0
DWIDTH 14 0
BBX 10 19 2 0
BITMAP
FF40
FF40
00C0
00C0
00C0
00C0
00C0
00C0
7F40
FF80
7F40
00C0
00C0
00C0
00C0
00C0
00C0
FF40
FF40
ENDCHAR
STARTCHAR 0034
ENCODING 52
SWIDTH 480 0
DWIDTH 14 0
BBX 11 19 1 0
BITMAP
0020
C020
C060
C060
C060
C060
C060
C060
FFA0
7FC0
3FA0
0060
0060
0060
0060
0060
0060
0020
0020
ENDCHAR
STARTCHAR 0035
ENCODING 53
SWIDTH 480 0
DWIDTH 14 0
BBX 11 19 1 0
BITMAP
7FC0
7FC0
C000
C000
C000
C000
C000
C000
FF80
7FC0
3FA0
0060
0060
0060
0060
0060
0060
7FA0
7FA0
ENDCHAR
STARTCHAR 0036
ENCODING 54
SWIDTH 480 0
DWIDTH 14 0
BBX 11 19 1 0
BITMAP
7FC0
7FC0
C000
C000
C000
C000
C000
C000
FF80
7FC0
FFA0
C060
C060
C060
C060
C060
C060
7FA0
7FA0
ENDCHAR
STARTCHAR 0037
ENCODING 55
SWIDTH 480 0
DWIDTH 14 0
BBX 11 19 1 0
BITMAP
7FA0
7FA0
C060
C060
C060
C060
C060
C060
C020
0000
0020
0060
0060
0060
0060
0060
0060
0020
0020
ENDCHAR
STARTCHAR 0038
ENCODING 56
SWIDTH 480 0
DWIDTH 14 0
BBX 11 19 1 0
BITMAP
7FA0
7FA0
C060
C060
C060
C060
C060
C060
FFA0
7FC0
FFA0
C060
C060
C060
C060
C060
C060
7FA0
7FA0
ENDCHAR
STARTCHAR 0039
ENCODING 57
SWIDTH 480 0
DWIDTH 14 0
BBX 11 19 1 0
BITMAP
7FA0
7FA0
C060
C060
C060
C060
C060
C060
FFA0
7FC0
3FA0
0060
0060
0060
0060
0060
0060
7FA0
7FA0
ENDCHAR
STARTCHAR 003A
ENCODING 58
SWIDTH 171 0
DWIDTH 5 0
BBX 2 11 1 4
BITMAP
C0
C0
00
00
00
00
00
00
00
C0
C0
ENDCHAR
STARTCHAR 003B
ENCODING 59
SWIDTH 171 0
DWIDTH 5 0
BBX 2 18 1 -3
BITMAP
C0
C0
00
00
00
00
00
00
00
00
00
00
00
C0
C0
C0
C0
40
ENDCHAR
STARTCHAR 003C
ENCODING 60
SWIDTH 342 0
DWIDTH 10 0
BBX 6 11 2 4
BITMAP
0C
1C
38
70
E0
00
E0
70
38
1C
0C
ENDCHAR
STARTCHAR 003D
ENCODING 61
SWIDTH 411 0
DWIDTH 12 0
BBX 9 7 1 6
BITMAP
7F80
FF80
0000
0000
0000
FF80
7F00
ENDCHAR
STARTCHAR 003E
ENCODING 62
SWIDTH 342 0
DWIDTH 10 0
BBX 6 11 2 4
BITMAP
C0
E0
70
38
1C
00
1C
38
70
E0
C0
ENDCHAR
STARTCHAR 003F
ENCODING 63
SWIDTH 480 0
DWIDTH 14 0
BBX 11 19 1 0
BITMAP
7FA0
7FA0
0060
0060
0060
0060
0060
0060
3FA0
7FC0
FF80
C000
C000
C000
C000
0000
0000
C000
C000
ENDCHAR
STARTCHAR 0040
ENCODING 64
SWIDTH 480 0
DWIDTH 14 0
BBX 11 19 1 0
BITMAP
7FA0
7FA0
C060
C060
C7E0
C7E0
C460
C660
C420
0000
C420
C660
C460
C7A0
C7E0
C000
C000
7F80
7F80
ENDCHAR
STARTCHAR 0041
ENCODING 65
SWIDTH 480 0
DWIDTH 14 0
BBX 11 19 1 0
BITMAP
7FA0
7FA0
C060
C060
C060
C060
C060
C060
FFA0
7FC0
FFA0
C060
C060
C060
C060
C060
C060
C020
4020
ENDCHAR
STARTCHAR 0042
ENCODING 66
SWIDTH 480 0
DWIDTH 14 0
BBX 11 19 1 0
BITMAP
FF80
7F80
C060
C060
C060
C060
C060
C060
FFA0
7FC0
FFA0
C060
C060
C060
C060
C060
C060
7F80
FF80
ENDCHAR
STARTCHAR 0043
ENCODING 67
SWIDTH 445 0
DWIDTH 13 0
BBX 10 19 1 0
BITMAP
7FC0
7FC0
C000
C000
C000
C000
C000
C000
C000
0000
C000
C000
C000
C000
C000
C000
C000
7FC0
7FC0
ENDCHAR
STARTCHAR 0044
ENCODING 68
SWIDTH 480 0
DWIDTH 14 0
BBX 11 19 1 0
BITMAP
FF80
7F80
C060
C060
C060
C060
C060
C060
C020
0000
C020
C060
C060
C060
C060
C060
C060
7F80
FF80
ENDCHAR
STARTCHAR 0045
ENCODING 69
SWIDTH 445 0
DWIDTH 13 0
BBX 10 19 1 0
BITMAP
7FC0
7FC0
C000
C000
C000
C000
C000
C000
FF80
7FC0
FF80
C000
C000
C000
C000
C000
C000
7FC0
7FC0
ENDCHAR
STARTCHAR 0046
ENCODING 70
SWIDTH 445 0
DWIDTH 13 0
BBX 10 19 1 0
BITMAP
7FC0
7FC0
C000
C000
C000
C000
C000
C000
FF80
7FC0
FF80
C000
C000
C000
C000
C000
C000
C000
4000
ENDCHAR
STARTCHAR 0047
ENCODING 71
SWIDTH 480 0
DWIDTH 14 0
BBX 11 19 1 0
BITMAP
7FC0
7FC0
C000
C000
C000
C000
C000
C000
C180
03C0
C1A0
C060
C060
C060
C060
C060
C060
7FA0
7FA0
ENDCHAR
STARTCHAR 0048
ENCODING 72
SWIDTH 480 0
DWIDTH 14 0
BBX 11 19 1 0
BITMAP
4020
C020
C060
C060
C060
C060
C060
C060
FFA0
7FC0
FFA0
C060
C060
C060
C060
C060
C060
C020
4020
ENDCHAR
STARTCHAR 0049
ENCODING 73
SWIDTH 171 0
DWIDTH 5 0
BBX 2 19 1 0
BITMAP
40
40
C0
C0
C0
C0
C0
C0
40
00
40
C0
C0
C0
C0
C0
C0
40
40
ENDCHAR
STARTCHAR 004A
ENCODING 74
SWIDTH 480 0
DWIDTH 14 0
BBX 11 19 1 0
BITMAP
0020
0020
0060
0060
0060
0060
0060
0060
0020
0000
C020
C060
C060
C060
C060
C060
C060
7FA0
7FA0
ENDCHAR
STARTCHAR 004B
ENCODING 75
SWIDTH 480 0
DWIDTH 14 0
BBX 11 19 1 0
BITMAP
4060
C0E0
C1C0
C380
C700
CE00
DC00
D800
FF80
7FC0
FFA0
C060
C060
C060
C060
C060
C060
C020
4020
ENDCHAR
STARTCHAR 004C
ENCODING 76
SWIDTH 480 0
DWIDTH 14 0
BBX 11 19 1 0
BITMAP
4000
C000
C000
C000
C000
C000
C000
C000
C000
0000
C000
C000
C000
C000
C000
C000
C000
DFE0
7FE0
ENDCHAR
STARTCHAR 004D
ENCODING 77
SWIDTH 480 0
DWIDTH 14 0
BBX 11 19 1 0
BITMAP
7FA0
7FA0
C060
C660
C660
C660
C660
C660
C620
0000
C020
C060
C060
C060
C060
C060
C060
C020
4020
ENDCHAR
STARTCHAR 004E
ENCODING 78
SWIDTH 480 0
DWIDTH 14 0
BBX 11 19 1 0
BITMAP
4020
C020
D860
DC60
CE60
C760
C3E0
C1E0
C020
0000
C020
C060
C060
C060
C060
C060
C060
C020
4020
ENDCHAR
STARTCHAR 004F
ENCODING 79
SWIDTH 480 0
DWIDTH 14 0
BBX 11 19 1 0
BITMAP
3F80
7F80
C060
C060
C060
C060
C060
C060
C020
0000
C020
C060
C060
C060
C060
C060
C060
7F80
3F80
ENDCHAR
STARTCHAR 0050
ENCODING 80
SWIDTH 480 0
DWIDTH 14 0
BBX 11 19 1 0
BITMAP
FF80
7F80
C060
C060
C060
C060
C060
C060
FFA0
7FC0
FF80
C000
C000
C000
C000
C000
C000
C000
4000
ENDCHAR
STARTCHAR 0051
ENCODING 81
SWIDTH 480 0
DWIDTH 14 0
BBX 12 19 1 0
BITMAP
7FA0
7FA0
C060
C060
C060
C060
C060
C060
C020
0000
C020
C060
C060
C060
C1E0
C1E0
C1E0
7FF0
7FF0
ENDCHAR
STARTCHAR 0052
ENCODING 82
SWIDTH 480 0
DWIDTH 14 0
BBX 11 19 1 0
BITMAP
7FA0
7FA0
C060
C060
C060
C060
C060
C060
FFA0
7FC0
FF80
D800
DC00
CE00
C700
C380
C1C0
C0E0
4060
ENDCHAR
STARTCHAR 0053
ENCODING 83
SWIDTH 480 0
DWIDTH 14 0
BBX 11 19 1 0
BITMAP
7FE0
7FE0
C000
C000
C000
C000
C000
C000
FF80
7FC0
3FA0
0060
0060
0060
0060
0060
0060
7FA0
7FA0
ENDCHAR
STARTCHAR 0054
ENCODING 84
SWIDTH 480 0
DWIDTH 14 0
BBX 10 19 2 0
BITMAP
FFC0
FFC0
0000
0C00
0C00
0C00
0C00
0C00
0C00
0000
0C00
0C00
0C00
0C00
0C00
0C00
0C00
0C00
0800
ENDCHAR
STARTCHAR 0055
ENCODING 85
SWIDTH 480 0
DWIDTH 14 0
BBX 11 19 1 0
BITMAP
4020
C020
C060
C060
C060
C060
C060
C060
C020
0000
C020
C060
C060
C060
C060
C060
C060
7FA0
7FA0
ENDCHAR
STARTCHAR 0056
ENCODING 86
SWIDTH 480 0
DWIDTH 14 0
BBX 11 19 1 0
BITMAP
4020
C020
C060
C060
C060
C060
C060
C060
C020
0000
8020
C060
6060
70C0
39C0
1B80
0F00
0E00
0600
ENDCHAR
STARTCHAR 0057
ENCODING 87
SWIDTH 480 0
DWIDTH 14 0
BBX 11 19 1 0
BITMAP
4020
C020
C060
C060
C060
C060
C060
C060
C020
0000
C620
C660
C660
C660
C660
C660
C060
7FA0
7FA0
ENDCHAR
STARTCHAR 0058
ENCODING 88
SWIDTH 480 0
DWIDTH 14 0
BBX 10 19 2 0
BITMAP
C0C0
C0C0
E1C0
6180
7380
3300
3F00
1E00
1E00
0000
1E00
1E00
3F00
3300
7380
6180
E1C0
C0C0
C0C0
ENDCHAR
STARTCHAR 0059
ENCODING 89
SWIDTH 480 0
DWIDTH 14 0
BBX 11 19 1 0
BITMAP
0020
C020
C060
C060
C060
C060
C060
C060
FFA0
7FC0
3FA0
0060
0060
0060
0060
0060
0060
7FA0
7FA0
ENDCHAR
STARTCHAR 005A
ENCODING 90
SWIDTH 480 0
DWIDTH 14 0
BBX 10 19 2 0
BITMAP
FFC0
FEC0
01C0
0180
0380
0300
0700
0600
0600
0000
1800
1800
3800
3000
7000
6000
E000
DF80
FF80
ENDCHAR
STARTCHAR 005B
ENCODING 91
SWIDTH 274 0
DWIDTH 8 0
BBX 6 19 1 0
BITMAP
7C
78
C0
C0
C0
C0
C0
C0
C0
00
C0
C0
C0
C0
C0
C0
C0
78
7C
ENDCHAR
STARTCHAR 005C
ENCODING 92
SWIDTH 480 0
DWIDTH 14 0
BBX 10 19 2 0
BITMAP
C000
C000
E000
6000
7000
3000
3800
1800
1800
0000
0600
0600
0700
0300
0380
0180
01C0
00C0
00C0
ENDCHAR
STARTCHAR 005D
ENCODING 93
SWIDTH 274 0
DWIDTH 8 0
BBX 6 19 1 0
BITMAP
FC
6C
0C
0C
0C
0C
0C
0C
04
00
04
0C
0C
0C
0C
0C
0C
6C
F8
ENDCHAR
STARTCHAR 005E
ENCODING 94
SWIDTH 480 0
DWIDTH 14 0
BBX 11 7 1 12
BITMAP
0600
0F00
1F80
39C0
70E0
E060
4020
ENDCHAR
STARTCHAR 005F
ENCODING 95
SWIDTH 480 0
DWIDTH 14 0
BBX 10 2 2 0
BITMAP
FFC0
FFC0
ENDCHAR
STARTCHAR 0060
ENCODING 96
SWIDTH 240 0
DWIDTH 7 0
BBX 5 5 1 15
BITMAP
40
E0
70
38
18
ENDCHAR
STARTCHAR 0061
ENCODING 97
SWIDTH 480 0
DWIDTH 14 0
BBX 11 19 1 0
BITMAP
7FA0
7FA0
C060
C060
C060
C060
C060
C060
FFA0
7FC0
FFA0
C060
C060
C060
C060
C060
C060
C020
4020
ENDCHAR
STARTCHAR 0062
ENCODING 98
SWIDTH 480 0
DWIDTH 14 0
BBX 11 19 1 0
BITMAP
FF80
7F80
C060
C060
C060
C060
C060
C060
FFA0
7FC0
FFA0
C060
C060
C060
C060
C060
C060
7F80
FF80
ENDCHAR
STARTCHAR 0063
ENCODING 99
SWIDTH 445 0
DWIDTH 13 0
BBX 10 19 1 0
BITMAP
7FC0
7FC0
C000
C000
C000
C000
C000
C000
C000
0000
C000
C000
C000
C000
C000
C000
C000
7FC0
7FC0
ENDCHAR
STARTCHAR 0064
ENCODING 100
SWIDTH 480 0
DWIDTH 14 0
BBX 11 19 1 0
BITMAP
FF80
7F80
C060
C060
C060
C060
C060
C060
C020
0000
C020
C060
C060
C060
C060
C060
C060
7F80
FF80
ENDCHAR
STARTCHAR 0065
ENCODING 101
SWIDTH 445 0
DWIDTH 13 0
BBX 10 19 1 0
BITMAP
7FC0
7FC0
C000
C000
C000
C000
C000
C000
FF80
7FC0
FF80
C000
C000
C000
C000
C000
C000
7FC0
7FC0
ENDCHAR
STARTCHAR 0066
ENCODING 102
SWIDTH 445 0
DWIDTH 13 0
BBX 10 19 1 0
BITMAP
7FC0
7FC0
C000
C000
C000
C000
C000
C000
FF80
7FC0
FF80
C000
C000
C000
C000
C000
C000
C000
4000
ENDCHAR
STARTCHAR 0067
ENCODING 103
SWIDTH 480 0
DWIDTH 14 0
BBX 11 19 1 0
BITMAP
7FC0
7FC0
C000
C000
C000
C000
C000
C000
C180
03C0
C1A0
C060
C060
C060
C060
C060
C060
7FA0
7FA0
ENDCHAR
STARTCHAR 0068
ENCODING 104
SWIDTH 480 0
DWIDTH 14 0
BBX 11 19 1 0
BITMAP
4020
C020
C060
C060
C060
C060
C060
C060
FFA0
7FC0
FFA0
C060
C060
C060
C060
C060
C060
C020
4020
ENDCHAR
STARTCHAR 0069
ENCODING 105
SWIDTH 171 0
DWIDTH 5 0
BBX 2 19 1 0
BITMAP
40
40
C0
C0
C0
C0
C0
C0
40
00
40
C0
C0
C0
C0
C0
C0
40
40
ENDCHAR
STARTCHAR 006A
ENCODING 106
SWIDTH 480 0
DWIDTH 14 0
BBX 11 19 1 0
BITMAP
0020
0020
0060
0060
0060
0060
0060
0060
0020
0000
C020
C060
C060
C060
C060
C060
C060
7FA0
7FA0
ENDCHAR
STARTCHAR 006B
ENCODING 107
SWIDTH 480 0
DWIDTH 14 0
BBX 11 19 1 0
BITMAP
4060
C0E0
C1C0
C380
C700
CE00
DC00
D800
FF80
7FC0
FFA0
C060
C060
C060
C060
C060
C060
C020
4020
ENDCHAR
STARTCHAR 006C
ENCODING 108
SWIDTH 480 0
DWIDTH 14 0
BBX 11 19 1 0
BITMAP
4000
C000
C000
C000
C000
C000
C000
C000
C000
0000
C000
C000
C000
C000
C000
C000
C000
DFE0
7FE0
ENDCHAR
STARTCHAR 006D
ENCODING 109
SWIDTH 480 0
DWIDTH 14 0
BBX 11 19 1 0
BITMAP
7FA0
7FA0
C060
C660
C660
C660
C660
C660
C620
0000
C020
C060
C060
C060
C060
C060
C060
C020
4020
ENDCHAR
STARTCHAR 006E
ENCODING 110
SWIDTH 480 0
DWIDTH 14 0
BBX 11 19 1 0
BITMAP
4020
C020
D860
DC60
CE60
C760
C3E0
C1E0
C020
0000
C020
C060
C060
C060
C060
C060
C060
C020
4020
ENDCHAR
STARTCHAR 006F
ENCODING 111
SWIDTH 480 0
DWIDTH 14 0
BBX 11 19 1 0
BITMAP
3F80
7F80
C060
C060
C060
C060
C060
C060
C020
0000
C020
C060
C060
C060
C060
C060
C060
7F80
3F80
ENDCHAR
STARTCHAR 0070
ENCODING 112
SWIDTH 480 0
DWIDTH 14 0
BBX 11 19 1 0
BITMAP
FF80
7F80
C060
C060
C060
C060
C060
C060
FFA0
7FC0
FF80
C000
C000
C000
C000
C000
C000
C000
4000
ENDCHAR
STARTCHAR 0071
ENCODING 113
SWIDTH 480 0
DWIDTH 14 0
BBX 12 19 1 0
BITMAP
7FA0
7FA0
C060
C060
C060
C060
C060
C060
C020
0000
C020
C060
C060
C060
C1E0
C1E0
C1E0
7FF0
7FF0
ENDCHAR
STARTCHAR 0072
ENCODING 114
SWIDTH 480 0
DWIDTH 14 0
BBX 11 19 1 0
BITMAP
7FA0
7FA0
C060
C060
C060
C060
C060
C060
FFA0
7FC0
FF80
D800
DC00
CE00
C700
C380
C1C0
C0E0
4060
ENDCHAR
STARTCHAR 0073
ENCODING 115
SWIDTH 480 0
DWIDTH 14 0
BBX 11 19 1 0
BITMAP
7FE0
7FE0
C000
C000
C000
C000
C000
C000
FF80
7FC0
3FA0
0060
0060
0060
0060
0060
0060
7FA0
7FA0
ENDCHAR
STARTCHAR 0074
ENCODING 116
SWIDTH 480 0
DWIDTH 14 0
BBX 10 19 2 0
BITMAP
FFC0
FFC0
0000
0C00
0C00
0C00
0C00
0C00
0C00
0000
0C00
0C00
0C00
0C00
0C00
0C00
0C00
0C00
0800
ENDCHAR
STARTCHAR 0075
ENCODING 117
SWIDTH 480 0
DWIDTH 14 0
BBX 11 19 1 0
BITMAP
4020
C020
C060
C060
C060
C060
C060
C060
C020
0000
C020
C060
C060
C060
C060
C060
C060
7FA0
7FA0
ENDCHAR
STARTCHAR 0076
ENCODING 118
SWIDTH 480 0
DWIDTH 14 0
BBX 11 19 1 0
BITMAP
4020
C020
C060
C060
C060
C060
C060
C060
C020
0000
8020
C060
6060
70C0
39C0
1B80
0F00
0E00
0600
ENDCHAR
STARTCHAR 0077
ENCODING 119
SWIDTH 480 0
DWIDTH 14 0
BBX 11 19 1 0
BITMAP
4020
C020
C060
C060
C060
C060
C060
C060
C020
0000
C620
C660
C660
C660
C660
C660
C060
7FA0
7FA0
ENDCHAR
STARTCHAR 0078
ENCODING 120
SWIDTH 480 0
DWIDTH 14 0
BBX 10 19 2 0
BITMAP
C0C0
C0C0
E1C0
6180
7380
3300
3F00
1E00
1E00
0000
1E00
1E00
3F00
3300
7380
6180
E1C0
C0C0
C0C0
ENDCHAR
STARTCHAR 0079
ENCODING 121
SWIDTH 480 0
DWIDTH 14 0
BBX 11 19 1 0
BITMAP
0020
C020
C060
C060
C060
C060
C060
C060
FFA0
7FC0
3FA0
0060
0060
0060
0060
0060
0060
7FA0
7FA0
ENDCHAR
STARTCHAR 007A
ENCODING 122
SWIDTH 480 0
DWIDTH 14 0
BBX 10 19 2 0
BITMAP
FFC0
FEC0
01C0
0180
0380
0300
0700
0600
0600
0000
1800
1800
3800
3000
7000
6000
E000
DF80
FF80
ENDCHAR
STARTCHAR 007B
ENCODING 123
SWIDTH 377 0
DWIDTH 11 0
BBX 9 19 1 0
BITMAP
0F80
0F00
1800
1C00
1C00
1C00
1C00
1C00
6C00
F000
6C00
1C00
1C00
1C00
1C00
1C00
1800
0F00
0F80
ENDCHAR
STARTCHAR 007C
ENCODING 124
SWIDTH 171 0
DWIDTH 5 0
BBX 2 19 1 0
BITMAP
40
40
C0
C0
C0
C0
C0
C0
C0
C0
C0
C0
C0
C0
C0
C0
C0
40
40
ENDCHAR
STARTCHAR 007D
ENCODING 125
SWIDTH 377 0
DWIDTH 11 0
BBX 9 19 1 0
BITMAP
FC00
7800
0C00
0C00
0C00
0C00
0C00
0C00
0B00
0780
0B00
0C00
0C00
0C00
0C00
0C00
0C00
7800
F800
ENDCHAR
STARTCHAR 007E
ENCODING 126
SWIDTH 480 0
DWIDTH 14 0
BBX 12 5 1 9
BITMAP
1800
7E20
E770
0180
01C0
ENDCHAR
STARTCHAR 00A9
ENCODING 169
SWIDTH 514 0
DWIDTH 15 0
BBX 13 19 1 0
BITMAP
7FF8
7FF8
C018
C018
CFD8
CF98
D818
DC18
DC18
DC18
DC18
DC18
DC18
CBD8
CF98
C018
C018
7FF8
7FE8
ENDCHAR
STARTCHAR 2013
ENCODING 8211
SWIDTH 480 0
DWIDTH 14 0
BBX 12 3 1 8
BITMAP
7FE0
FFF0
7FE0
ENDCHAR
STARTCHAR 2014
ENCODING 8212
SWIDTH 514 0
DWIDTH 15 0
BBX 13 3 1 8
BITMAP
7FF0
FFF8
7FF0
ENDCHAR
STARTCHAR 2018
ENCODING 8216
SWIDTH 171 0
DWIDTH 5 0
BBX 2 5 1 14
BITMAP
40
C0
C0
C0
C0
ENDCHAR
STARTCHAR 2019
ENCODING 8217
SWIDTH 171 0
DWIDTH 5 0
BBX 2 5 1 14
BITMAP
C0
C0
C0
C0
40
ENDCHAR
STARTCHAR 201C
ENCODING 8220
SWIDTH 308 0
DWIDTH 9 0
BBX 7 5 1 14
BITMAP
44
C6
C6
C6
C6
ENDCHAR
STARTCHAR 201D
ENCODING 8221
SWIDTH 308 0
DWIDTH 9 0
BBX 7 5 1 14
BITMAP
C6
C6
C6
C6
44
ENDCHAR
STARTCHAR 2022
ENCODING 8226
SWIDTH 342 0
DWIDTH 10 0
BBX 8 7 1 7
BITMAP
3E
7F
FF
FF
FF
7E
3C
ENDCHAR
STARTCHAR 2030
ENCODING 8240
SWIDTH 548 0
DWIDTH 16 0
BBX 13 19 1 0
BITMAP
6800
7830
D870
D8E0
D1C0
7980
0500
0C00
1C00
3800
7000
6000
0000
3AE8
0E38
36D8
36C8
36D8
1E78
ENDCHAR
ENDFONT
